
<svg version="1.1" id="Calque_1" xmlns="http://www.w3.org/2000/svg" xmlns:xlink="http://www.w3.org/1999/xlink" x="0px" y="0px"
	 viewBox="0 0 638.8 358.9" style="enable-background:new 0 0 638.8 358.9;" xml:space="preserve">
<path class="st0" d="M134.1,211.5l1.4,8.5c1.2,8.5,2.2,17.5,3.1,27.2c0.9,9.7,1.4,19.3,1.4,28.9c0,9.6-0.8,18.9-2.4,27.9
	c-1.6,9-4.5,17.3-8.6,24.7c-4.1,7.5-9.6,13.7-16.6,18.9c-7,5.1-15.8,8.6-26.7,10.3c-11.7,1.9-22.4,1-32-2.8s-18.1-9.5-25.3-17
	s-13.2-16.4-17.7-26.5C6.2,301.4,3,290.9,1.2,280C0.4,275.2,0,269.8,0,263.7s0.8-11.9,2.3-17.4s3.9-10.3,7.1-14.5
	c3.2-4.2,7.7-6.7,13.6-7.7c6.3-1,11.3,0,15,3.1c3.7,3.1,6.8,7.2,9,12.4c2.3,5.1,4.2,10.8,5.6,17c1.5,6.2,3,11.9,4.5,17.1
	s3.4,9.5,5.6,12.9c2.2,3.4,5.3,4.7,9.2,4.1c4.5-0.8,7.8-3.4,9.7-7.9c1.9-4.5,3-9.7,3.3-15.4s0.1-11.5-0.5-17.3
	c-0.6-5.7-1.2-10.2-1.7-13.4c-2.1-12.7-5.2-25-9.2-36.9c-4.1-11.8-8.6-23.8-13.7-35.8c-2.6-6.1-5.3-12.3-8.1-18.6
	c-2.8-6.3-4.8-12.8-5.9-19.4c-1.3-7.7-0.4-14.4,2.7-19.9c3.1-5.5,8.4-8.9,16-10.2c5.6-0.9,10.3-0.5,13.9,1.4
	c3.6,1.9,7.5,4.8,11.5,8.8c6.1,6.2,11.6,13.6,16.5,22.2c4.9,8.5,9.1,17.6,12.6,27c3.6,9.5,6.6,19.1,9.1,28.8
	C130.8,194,132.7,203.1,134.1,211.5L134.1,211.5z"/>
<path class="st0" d="M250.8,334.2c-13.2,2.2-25.3,0.6-36.2-4.7c-10.9-5.3-20.5-13.3-28.8-24c-8.3-10.7-15.3-23.5-21-38.4
	c-5.7-15-9.9-31-12.8-48c-2.6-15.9-3.6-32.4-2.9-49.3c0.7-16.9,3.4-32.6,8.1-46.9c4.8-14.3,11.8-26.6,21-36.8
	c9.2-10.2,21.2-16.5,36-18.9c14.3-2.4,26.9-0.3,37.9,6.2c11,6.5,20.4,15.7,28.3,27.6c7.9,11.9,14.3,25.6,19.5,41.1
	c5.1,15.5,9,31.2,11.6,47.2c2.9,17.8,4,34.8,3.2,51.2c-0.8,16.4-3.5,31.1-8.4,44.3c-4.8,13.2-11.8,24.2-21,32.9
	S264.7,331.9,250.8,334.2L250.8,334.2z M223.3,143.1c-4.1,0.7-7.4,3-9.7,6.9c-2.4,3.9-4.1,8.8-5.1,14.7s-1.4,12.4-1.1,19.5
	c0.3,7.1,1,14.2,2.2,21.2c1.3,8,3.1,15.8,5.4,23.7c2.3,7.8,4.9,14.7,7.9,20.8c3,6,6.3,10.8,9.8,14.2c3.6,3.4,7.4,4.7,11.5,4.1
	c4.8-0.8,8.1-3.9,10.1-9.4c2-5.5,3.2-11.9,3.7-19.2c0.5-7.3,0.3-14.8-0.4-22.4s-1.5-13.9-2.3-18.9c-1-6.1-2.5-12.6-4.3-19.3
	c-1.9-6.7-4.2-12.8-6.9-18.3c-2.7-5.5-5.8-10-9.2-13.4C231.6,143.8,227.7,142.4,223.3,143.1L223.3,143.1z"/>
<path class="st0" d="M459.8,81.1c2.6,15.7,1.2,30.6-4,44.6c-5.2,14.1-13.3,26.4-24.3,37.1c6.7,0.3,12.7,1.7,18,4.2
	c5.3,2.5,9.9,5.9,13.9,10.2c3.9,4.3,7.2,9.3,9.8,15s4.5,11.9,5.6,18.5c2.1,13,1.1,24.8-3,35.4s-10.3,19.8-18.3,27.6
	s-17.4,14.1-28.1,19c-10.7,4.9-21.5,8.3-32.6,10.1c-6.1,1-12.2,1.5-18.4,1.6s-12.2-0.6-18-1.9c-2.1-0.4-4.1-2.9-6.2-7.6
	s-4.1-10.5-6-17.4c-1.9-6.9-3.8-14.5-5.5-22.6c-1.8-8.1-3.4-15.9-4.8-23.4c-1.5-7.5-2.7-14-3.6-19.7c-0.9-5.7-1.6-9.7-2-11.9
	c-1.3-8-2.6-16-4-24.1c-1.3-8.1-2.4-16.1-3.3-24.2c-0.3-2-0.8-5.2-1.4-9.6c-0.6-4.3-1.3-9.2-2.1-14.6c-0.8-5.4-1.5-11-2.1-17
	s-1.1-11.6-1.4-16.8s-0.3-9.7,0.1-13.5c0.4-3.8,1.1-6.3,2.3-7.4c4.4-4.2,9.4-8.4,15-12.5c5.6-4.1,11.4-7.8,17.5-11.1
	c6.1-3.3,12.3-6.2,18.6-8.7c6.3-2.4,12.3-4.1,18.2-5.1c8-1.3,16-1.4,23.8-0.2s15,3.7,21.3,7.5s11.7,9,16.2,15.4
	C455.4,64.6,458.4,72.2,459.8,81.1L459.8,81.1z M408.9,108c-0.6-3.9-2.2-6.5-4.8-8c-2.6-1.4-5.7-1.9-9.4-1.3c-3,0.5-6.1,1.7-9.2,3.6
	c-3.1,1.9-5.7,4.2-7.7,6.9c-0.5,0.8-0.8,2.8-0.8,6.1c0,3.3,0.1,6.9,0.5,11c0.3,4,0.7,7.8,1.2,11.4c0.5,3.5,0.8,5.9,1,7
	c0.1,0.5,0.2,1.2,0.4,2.2c0.2,1,0.4,2.1,0.7,3.2c0.3,1.1,0.6,2.1,1,3c0.4,0.9,0.8,1.3,1.2,1.2c3.7-0.6,7.2-2.7,10.7-6.1
	c3.4-3.5,6.4-7.6,8.8-12.3c2.5-4.7,4.3-9.6,5.6-14.8S409.5,111.7,408.9,108L408.9,108z M423.8,206.9c-0.6-3.9-2.4-6.4-5.2-7.5
	c-2.9-1.2-5.9-1.5-9.2-0.9c-3,0.5-6.1,1.8-9.2,3.8c-3.1,2-5.6,4.2-7.4,6.7c-0.6,0.6-0.9,1.8-0.9,3.7c0,1.9,0.1,3.9,0.3,6.1
	c0.2,2.2,0.5,4.2,0.7,6.2c0.2,2,0.4,3.3,0.5,4c0.1,0.5,0.2,1.4,0.5,2.7c0.2,1.4,0.5,2.8,0.9,4.2c0.3,1.5,0.8,2.8,1.3,4
	s1,1.8,1.5,1.7c3-0.5,6.2-2,9.6-4.4c3.4-2.4,6.4-5.3,9.1-8.5c2.7-3.2,4.8-6.8,6.2-10.7C423.9,213.9,424.4,210.3,423.8,206.9
	L423.8,206.9z"/>
<path class="st0" d="M623.2,114.4c0.6,3.6,1.2,8.6,1.8,15c0.6,6.3,1,13.1,1.4,20.5c0.3,7.3,0.3,14.8-0.1,22.5
	c-0.4,7.7-1.2,14.7-2.4,21.1c-1.2,6.4-3,11.7-5.4,16c-2.4,4.2-5.6,6.7-9.5,7.3c-4.8,0.8-9.2-1-13.4-5.3c-4.2-4.3-8-10.1-11.5-17.4
	c-3.5-7.2-6.7-15.4-9.5-24.5c-2.8-9.1-5.3-18.1-7.5-27s-3.9-17.1-5.2-24.7c-1.4-7.6-2.4-13.5-3.1-17.5c-0.7-4.1-1.5-9.3-2.6-15.5
	c-1-6.2-1.9-13-2.5-20.1c-0.6-7.1-0.9-14.3-0.9-21.4c0-7.1,0.8-13.7,2.2-19.8c1.5-6.1,3.8-11.2,7.2-15.4c3.3-4.2,7.9-6.7,13.8-7.7
	c5.2-0.9,9.9,0.8,14,4.9c4.1,4.1,7.8,9.7,11.1,16.8c3.3,7.1,6.2,15.1,8.6,24c2.5,8.9,4.6,17.8,6.4,26.5c1.8,8.7,3.2,16.8,4.3,24.4
	S622.5,110.1,623.2,114.4L623.2,114.4z M638.4,245.1c0.6,3.9,0.3,7.4-0.9,10.5c-1.3,3.1-3.2,5.9-5.6,8.3c-2.5,2.4-5.3,4.3-8.4,5.8
	c-3.1,1.4-6.3,2.4-9.5,3c-4.8,0.8-9.5,0.2-14.3-1.7c-4.8-1.9-7.6-5.7-8.5-11.4c-0.6-3.4-0.2-6.7,1.2-9.8c1.4-3.2,3.3-6,5.8-8.5
	c2.5-2.5,5.3-4.6,8.5-6.3c3.2-1.7,6.3-2.8,9.3-3.3c5-0.8,9.8-0.3,14.3,1.7C634.7,235.3,637.5,239.2,638.4,245.1L638.4,245.1z"/>
</svg>
